<?xml version="1.0" standalone="no"?>
<!DOCTYPE svg PUBLIC "-//W3C//DTD SVG 20010904//EN"
 "http://www.w3.org/TR/2001/REC-SVG-20010904/DTD/svg10.dtd">
<svg version="1.0" xmlns="http://www.w3.org/2000/svg"
 width="512.000000pt" height="512.000000pt" viewBox="0 0 512.000000 512.000000"
 preserveAspectRatio="xMidYMid meet">
<metadata>
Created by potrace 1.11, written by Peter Selinger 2001-2013
</metadata>
<g transform="translate(0.000000,512.000000) scale(0.100000,-0.100000)"
fill="#000000" stroke="none">
<path d="M2113 4865 c-37 -16 -1060 -1033 -1092 -1086 -41 -66 -23 -154 42
-203 48 -37 104 -43 163 -17 l48 22 111 -110 c97 -97 118 -113 180 -137 39
-15 74 -30 79 -35 5 -4 -21 -37 -57 -74 -98 -100 -112 -140 -95 -288 3 -24
-67 -97 -638 -670 -440 -441 -648 -656 -664 -687 -33 -64 -37 -180 -9 -255 25
-68 100 -147 166 -178 70 -32 199 -31 268 2 39 19 185 159 692 665 573 571
646 641 670 638 148 -17 191 -3 288 96 38 38 69 62 74 56 4 -5 20 -40 35 -79
24 -62 40 -83 138 -181 l110 -111 -17 -33 c-22 -43 -27 -68 -19 -113 16 -98
136 -158 225 -111 18 9 270 254 560 544 556 557 558 559 546 636 -18 112 -130
171 -230 120 l-42 -21 -110 110 c-102 102 -116 112 -195 144 -360 144 -646
430 -791 790 -31 78 -43 94 -147 200 -62 63 -108 117 -103 121 19 11 38 75 35
114 -5 55 -33 96 -83 123 -50 26 -91 29 -138 8z"/>
<path d="M2426 1255 c-26 -24 -26 -26 -26 -160 0 -101 -3 -135 -12 -136 -124
-6 -226 -75 -281 -189 -21 -43 -22 -58 -22 -308 l0 -264 24 -19 c23 -19 59
-19 1411 -19 l1387 0 27 25 27 25 -3 258 c-3 247 -4 259 -27 307 -46 95 -143
167 -244 181 l-46 7 -3 139 c-3 133 -4 141 -27 159 -23 18 -55 19 -1091 19
l-1067 0 -27 -25z"/>
</g>
</svg>
